<?xml version="1.0" encoding="utf-8"?>
<!-- Generator: Adobe Illustrator 23.0.3, SVG Export Plug-In . SVG Version: 6.00 Build 0)  -->
<svg version="1.1" id="Layer_1" xmlns="http://www.w3.org/2000/svg" xmlns:xlink="http://www.w3.org/1999/xlink" x="0px" y="0px"
	 viewBox="0 0 16 16" style="enable-background:new 0 0 16 16;" xml:space="preserve">
<style type="text/css">
	.st0{fill-rule:evenodd;clip-rule:evenodd;fill:#9AA7B0;fill-opacity:0.8;}
	.st1{fill-rule:evenodd;clip-rule:evenodd;fill:#2091D0;}
	.st2{fill:#2A4557;}
</style>
<g>
	<polygon class="st0" points="7,1 3,5 7,5 	"/>
	<path class="st0" d="M13,7.1V1H8v5H3v9h5.8H13V7.1z"/>
	<rect x="0.9" y="9.1" class="st1" width="15.1" height="6.9"/>
	<g>
		<path class="st2" d="M2,12.8v-2.6h0.9v2.3C2.9,13.3,2.6,14,4,14c1.4,0,1.1-0.7,1.1-1.5v-2.3H6v2.6c0,1.2-0.6,2.1-2,2.1
			C2.7,14.8,2,14,2,12.8z"/>
		<path class="st2" d="M6.7,14.5l0.1-0.9C7.1,13.8,7.6,14,8.3,14c0.5,0,0.8-0.1,0.8-0.5c0-0.5-0.5-0.6-1.1-0.8
			C7.4,12.5,7,12.3,7,11.5c0-0.6,0.1-1.3,1.4-1.3c0.7,0,1.3,0.2,1.5,0.3l-0.1,0.8c-0.5-0.3-0.9-0.4-1.4-0.4c-0.4,0-0.9,0.1-0.9,0.5
			c0,0.4,0.4,0.5,1,0.6c0.7,0.2,1.4,0.5,1.4,1.4c0,0.5,0,1.3-1.6,1.3C7.6,14.8,7,14.7,6.7,14.5z"/>
		<path class="st2" d="M11.1,14.9V10h1.7c1.3,0,2.2,0.9,2.2,2.5s-0.9,2.5-2.2,2.5H11.1z M11.9,10.9v3.2h0.9c0.9,0,1.3-0.4,1.3-1.6
			c0-1.2-0.4-1.6-1.3-1.6H11.9z"/>
	</g>
</g>
</svg>
